<svg xmlns="http://www.w3.org/2000/svg" width="500" height="500" viewBox="0 0 500 500" fill="none"><metadata><rdf:RDF xmlns:rdf="http://www.w3.org/1999/02/22-rdf-syntax-ns#" xmlns:dc="http://purl.org/dc/elements/1.1/"><rdf:Description><dc:creator>RealFaviconGenerator</dc:creator><dc:source>https://realfavicongenerator.net</dc:source></rdf:Description></rdf:RDF></metadata><rect width="500" height="500" rx="75" fill="#000000"></rect><path d="M92 151L152 206L212 151" stroke="white" stroke-width="32" stroke-linecap="round" stroke-linejoin="round"></path><path d="M124 246C142.667 256.667 161.333 256.667 180 246" stroke="white" stroke-width="24" stroke-linecap="round"></path><path d="M92 349L152 294L212 349" stroke="white" stroke-width="32" stroke-linecap="round" stroke-linejoin="round"></path><path fill-rule="evenodd" clip-rule="evenodd" d="M244 150H286C374 150 424 185 424 250C424 315 374 350 286 350H244V150ZM286 192V308C344 308 380 288 380 250C380 212 344 192 286 192Z" fill="white"></path><path d="M243 148H275V167.6C275 169.84 275 170.96 274.564 171.816C274.181 172.569 273.569 173.181 272.816 173.564C271.96 174 270.84 174 268.6 174H243V148Z" fill="#000000"></path><path d="M243 325H268.6C270.84 325 271.96 325 272.816 325.436C273.569 325.819 274.181 326.431 274.564 327.184C275 328.04 275 329.16 275 331.4V351H243V325Z" fill="#000000"></path><style>@media (prefers-color-scheme: light) { :root { filter: none; } }
@media (prefers-color-scheme: dark) { :root { filter: none; } }
</style></svg>